<?xml version="1.0" encoding="UTF-8" standalone="no"?>
<!-- Created with Inkscape (http://www.inkscape.org/) -->
<svg xmlns:dc="http://purl.org/dc/elements/1.1/" xmlns:cc="http://creativecommons.org/ns#" xmlns:rdf="http://www.w3.org/1999/02/22-rdf-syntax-ns#" xmlns:svg="http://www.w3.org/2000/svg" xmlns="http://www.w3.org/2000/svg" xmlns:sodipodi="http://sodipodi.sourceforge.net/DTD/sodipodi-0.dtd" xmlns:inkscape="http://www.inkscape.org/namespaces/inkscape" width="561.32581" height="320.7514" id="svg3833" version="1.1" inkscape:version="0.48.4 r9939" sodipodi:docname="New document 4">
  <defs id="defs3835"/>
  <sodipodi:namedview id="base" pagecolor="#ffffff" bordercolor="#666666" borderopacity="1.0" inkscape:pageopacity="0.0" inkscape:pageshadow="2" inkscape:zoom="0.35" inkscape:cx="280.66628" inkscape:cy="160.36297" inkscape:document-units="px" inkscape:current-layer="layer1" showgrid="false" fit-margin-top="0" fit-margin-left="0" fit-margin-right="0" fit-margin-bottom="0" inkscape:window-width="501" inkscape:window-height="380" inkscape:window-x="0" inkscape:window-y="0" inkscape:window-maximized="0"/>
  <metadata id="metadata3838">
    <rdf:RDF>
      <cc:Work rdf:about="">
        <dc:format>image/svg+xml</dc:format>
        <dc:type rdf:resource="http://purl.org/dc/dcmitype/StillImage"/>
        <dc:title/>
      </cc:Work>
    </rdf:RDF>
  </metadata>
  <g inkscape:label="Layer 1" inkscape:groupmode="layer" id="layer1" transform="translate(-94.333721,-371.97374)">
    <g id="g3768" transform="translate(-106.99423,190.45383)">
      <path sodipodi:nodetypes="zsssssssssssz" inkscape:connector-curvature="0" id="path3053" d="m 333.04821,231.05778 c -37.22995,-22.38708 -125.59024,31.70565 -128.47299,88.94283 -2.16048,42.89648 42.82434,65.8836 72.47194,98.82538 29.64761,32.94181 62.58941,29.64763 115.2963,32.94181 52.70685,3.29417 39.53014,56.00106 92.23701,46.11852 52.70688,-9.88256 52.70688,-56.00106 69.17778,-59.29523 16.47088,-3.29419 79.06031,13.17671 92.23702,16.47088 13.17672,3.29419 42.82434,16.4709 46.11851,-42.82433 3.29419,-59.29521 -3.29417,-42.82433 39.53015,-82.35449 42.82433,-39.53014 39.53017,-72.47195 -32.94179,-82.35448 -72.47195,-9.88254 -69.17775,-56.00107 -112.0021,-39.53016 -13.75006,5.28849 -95.53121,-26.35344 -115.29628,-23.05926 -19.76507,3.29418 -101.1256,68.50559 -138.35555,46.11853 z" style="fill:#de8787;stroke:#800080;stroke-width:6.31757164;stroke-linecap:butt;stroke-linejoin:miter;stroke-opacity:1"/>
      <path inkscape:connector-curvature="0" id="path2986" d="m 291.7971,294.98317 c 48.7298,9.28187 18.56373,46.40934 41.76839,53.37073 23.20466,6.96141 34.807,-20.88419 58.01167,-11.60232 23.20467,9.28186 27.8456,16.24326 27.8456,16.24326" style="fill:none;stroke:#a430b8;stroke-width:6.67528009;stroke-linecap:butt;stroke-linejoin:miter;stroke-opacity:1"/>
      <path style="fill:none;stroke:#a430b8;stroke-width:5.61786127;stroke-linecap:butt;stroke-linejoin:miter;stroke-opacity:1" d="m 532.78575,381.91024 c -41.18272,-6.84637 -28.16128,31.24944 -48.51145,29.99629 -20.35018,-1.25315 -21.4119,-26.61846 -42.43714,-26.03912 -21.02525,0.57935 -26.71543,4.72671 -26.71543,4.72671" id="path3756" inkscape:connector-curvature="0"/>
      <path inkscape:connector-curvature="0" id="path3758" d="m 544.38809,277.48923 c -41.18272,-6.84636 -28.16128,31.24945 -48.51145,29.9963 -20.35018,-1.25315 -21.4119,-26.61846 -42.43714,-26.03912 -21.02525,0.57934 -26.71544,4.72671 -26.71544,4.72671" style="fill:none;stroke:#a430b8;stroke-width:5.61786127;stroke-linecap:butt;stroke-linejoin:miter;stroke-opacity:1"/>
      <path style="fill:none;stroke:#a430b8;stroke-width:5.61786127;stroke-linecap:butt;stroke-linejoin:miter;stroke-opacity:1" d="m 531.14507,321.5781 c 41.18271,-6.84637 28.16128,31.24945 48.51145,29.9963 20.35018,-1.25316 21.41189,-26.61846 42.43713,-26.03913 21.02526,0.57935 26.71544,4.72671 26.71544,4.72671" id="path3760" inkscape:connector-curvature="0"/>
      <path inkscape:connector-curvature="0" id="path3762" d="m 289.47662,250.89431 c -25.52513,9.28186 -67.29354,48.7298 -58.01166,60.33213 9.28186,11.60234 34.807,48.7298 48.7298,62.6526 13.9228,13.92281 46.40933,41.76841 46.40933,41.76841 0,0 -20.8842,-51.05027 -32.48653,-62.6526 -11.60234,-11.60234 -37.12748,-37.12747 -30.16607,-48.72981 6.9614,-11.60233 25.52513,-53.37073 25.52513,-53.37073 z" style="fill:#f1c1c1;fill-opacity:1;stroke:#ffc8c8;stroke-width:1.11254668px;stroke-linecap:butt;stroke-linejoin:miter;stroke-opacity:0"/>
      <path sodipodi:nodetypes="csscssc" style="fill:#f1c1c1;fill-opacity:1;stroke:#ffc8c8;stroke-width:0.52766609px;stroke-linecap:butt;stroke-linejoin:miter;stroke-opacity:0" d="m 404.72665,252.30536 c -12.10624,4.40227 -25.63533,24.36812 -21.23306,29.87095 4.40227,5.50284 10.22739,21.85568 16.8308,28.45907 6.60338,6.60341 25.15187,5.36366 25.15187,5.36366 0,0 -16.81431,-11.65026 -22.31715,-17.15308 -5.50283,-5.50284 -10.69984,-14.46852 -10.5387,-21.22757 0.15296,-6.41552 12.10624,-25.31303 12.10624,-25.31303 z" id="path3764" inkscape:connector-curvature="0"/>
      <path inkscape:connector-curvature="0" id="path3766" d="m 434.83219,431.17554 c -9.18308,9.48444 -7.55032,21.07551 -1.0263,24.17313 6.52401,3.0976 19.22353,15.55632 28.26943,18.68136 9.04591,3.12505 25.58377,-6.33312 25.58377,-6.33312 0,0 -20.71855,-3.19829 -28.25681,-5.80249 -7.53825,-2.6042 -16.34711,-8.53676 -19.22883,-14.83792 -2.73525,-5.98091 -5.34126,-15.88096 -5.34126,-15.88096 z" style="fill:#f1c1c1;fill-opacity:1;stroke:#ffc8c8;stroke-width:0.54076767px;stroke-linecap:butt;stroke-linejoin:miter;stroke-opacity:0" sodipodi:nodetypes="csscssc"/>
    </g>
  </g>
</svg>